M48
;Layer_Color=9474304
;FILE_FORMAT=4:4
METRIC,LZ
;TYPE=PLATED
T1F00S00C0.7112
T2F00S00C0.9000
T3F00S00C1.1900
;TYPE=NON_PLATED
T4F00S00C1.5000
T5F00S00C1.9800
%
T01
X0026225Y00114867
X00170401Y00224989
X00191606Y00282538
X0020583Y00290412
X0011176Y0029972
X00099404Y00353404
X00217006Y00399886
X00269501Y00381174
X00233179Y00463386
X00239123Y00485505
X00191606Y00463386
X00172048Y0057921
X00245454Y00589116
X00269501Y00570001
T02
X0012954Y0043434
X0015494
X0018034
X0020574
X0020574Y0048387
X0018034
X0015494
X0012954
T03
X00137584Y00045777
X00281784
Y00594378
X00137584
T04
X0036068Y0001016
X0005842
Y0062992
X0036068
T05
X00070284Y00594378
M30
