G04*
G04 #@! TF.GenerationSoftware,Altium Limited,Altium Designer,21.1.0 (24)*
G04*
G04 Layer_Color=8388736*
%FSLAX44Y44*%
%MOMM*%
G71*
G04*
G04 #@! TF.SameCoordinates,0D715D1A-8308-42F1-A0E9-906EAE5A06CC*
G04*
G04*
G04 #@! TF.FilePolarity,Negative*
G04*
G01*
G75*
%ADD14R,0.9032X0.8032*%
%ADD15R,0.7532X1.3482*%
%ADD16R,1.3482X0.7532*%
%ADD17R,2.1032X0.9032*%
%ADD18R,0.9032X2.1032*%
%ADD19R,1.3032X1.7732*%
%ADD20R,0.9832X1.1932*%
%ADD21C,1.1932*%
%ADD22C,1.9882*%
%ADD23C,1.7032*%
%ADD24R,1.7032X1.7032*%
%ADD25C,1.4732*%
D14*
X280500Y415000D02*
D03*
X269501D02*
D03*
X299500D02*
D03*
X310500D02*
D03*
Y400000D02*
D03*
X299500D02*
D03*
X269501D02*
D03*
X280500D02*
D03*
D15*
X230000Y580970D02*
D03*
X222000D02*
D03*
X214000D02*
D03*
X206000D02*
D03*
X198001D02*
D03*
X190000D02*
D03*
Y559030D02*
D03*
X198001D02*
D03*
X206000D02*
D03*
X214000D02*
D03*
X222000D02*
D03*
X230000D02*
D03*
D16*
X189021Y570001D02*
D03*
X230980D02*
D03*
D17*
X145000Y275000D02*
D03*
Y262500D02*
D03*
Y250000D02*
D03*
Y237500D02*
D03*
Y225000D02*
D03*
Y212500D02*
D03*
Y200000D02*
D03*
Y187500D02*
D03*
Y175000D02*
D03*
Y162500D02*
D03*
Y150000D02*
D03*
Y137500D02*
D03*
Y125000D02*
D03*
X292000D02*
D03*
Y137500D02*
D03*
Y150000D02*
D03*
Y162500D02*
D03*
Y175000D02*
D03*
Y187500D02*
D03*
Y200000D02*
D03*
Y212500D02*
D03*
Y225000D02*
D03*
Y237500D02*
D03*
Y250000D02*
D03*
Y262500D02*
D03*
Y275000D02*
D03*
D18*
X174750Y86910D02*
D03*
X187250D02*
D03*
X199750D02*
D03*
X212250D02*
D03*
X224750D02*
D03*
X237250D02*
D03*
X249750D02*
D03*
X262250D02*
D03*
Y313910D02*
D03*
X249750D02*
D03*
X237250D02*
D03*
X224750D02*
D03*
X212250D02*
D03*
X199750D02*
D03*
X187250D02*
D03*
X174750D02*
D03*
D19*
X288100Y485000D02*
D03*
X271900D02*
D03*
X288100Y460000D02*
D03*
X271900D02*
D03*
D20*
X292000Y434999D02*
D03*
X278000D02*
D03*
D21*
X58420Y10160D02*
D03*
X360680D02*
D03*
Y629920D02*
D03*
X58420D02*
D03*
X70284Y594378D02*
D03*
D22*
X137584D02*
D03*
X281784D02*
D03*
Y45777D02*
D03*
X137584D02*
D03*
D23*
X205740Y434340D02*
D03*
X180340D02*
D03*
X154940D02*
D03*
X205740Y483870D02*
D03*
X180340D02*
D03*
X154940D02*
D03*
D24*
X129540Y434340D02*
D03*
X129540Y483870D02*
D03*
D25*
X269501Y381174D02*
D03*
X111760Y299720D02*
D03*
X233179Y463386D02*
D03*
X239123Y485505D02*
D03*
X191606Y463386D02*
D03*
X170401Y224989D02*
D03*
X245454Y589116D02*
D03*
X99404Y353404D02*
D03*
X269501Y570001D02*
D03*
X262250Y114867D02*
D03*
X217006Y399886D02*
D03*
X191606Y282538D02*
D03*
X205830Y290412D02*
D03*
X172048Y579210D02*
D03*
M02*
