G04*
G04 #@! TF.GenerationSoftware,Altium Limited,Altium Designer,21.1.0 (24)*
G04*
G04 Layer_Color=16711935*
%FSLAX44Y44*%
%MOMM*%
G71*
G04*
G04 #@! TF.SameCoordinates,0D715D1A-8308-42F1-A0E9-906EAE5A06CC*
G04*
G04*
G04 #@! TF.FilePolarity,Positive*
G04*
G01*
G75*
%ADD10C,0.2000*%
%ADD11C,0.1000*%
D10*
X58420Y619727D02*
X58420Y20427D01*
X359534D01*
X58420Y619727D02*
X359534D01*
X235000Y555000D02*
Y585000D01*
X185000Y555000D02*
X235000D01*
X185000D02*
Y585000D01*
X235000D01*
X143500Y85410D02*
Y315410D01*
Y85410D02*
X293500D01*
Y315410D01*
X143500D02*
X293500D01*
D11*
X270000Y412500D02*
X280000D01*
X270000D02*
Y417500D01*
X280000D01*
Y412500D02*
Y417500D01*
X300000D02*
X310000D01*
Y412500D02*
Y417500D01*
X300000Y412500D02*
X310000D01*
X300000D02*
Y417500D01*
Y397500D02*
X310000D01*
X300000D02*
Y402500D01*
X310000D01*
Y397500D02*
Y402500D01*
X270000D02*
X280000D01*
Y397500D02*
Y402500D01*
X270000Y397500D02*
X280000D01*
X270000D02*
Y402500D01*
X270000Y478750D02*
X290000D01*
X270000D02*
Y491250D01*
X290000D01*
Y478750D02*
Y491250D01*
X277000Y430950D02*
X293000D01*
X277000D02*
Y439049D01*
X293000D01*
Y430950D02*
Y439049D01*
X270000Y453750D02*
X290000D01*
X270000D02*
Y466250D01*
X290000D01*
Y453750D02*
Y466250D01*
M02*
