G04*
G04 #@! TF.GenerationSoftware,Altium Limited,Altium Designer,21.1.0 (24)*
G04*
G04 Layer_Color=16711935*
%FSLAX44Y44*%
%MOMM*%
G71*
G04*
G04 #@! TF.SameCoordinates,0D715D1A-8308-42F1-A0E9-906EAE5A06CC*
G04*
G04*
G04 #@! TF.FilePolarity,Negative*
G04*
G01*
G75*
%ADD21C,1.1932*%
%ADD22C,1.9882*%
%ADD23C,1.7032*%
%ADD24R,1.7032X1.7032*%
%ADD25C,1.4732*%
D21*
X58420Y10160D02*
D03*
X360680D02*
D03*
Y629920D02*
D03*
X58420D02*
D03*
X70284Y594378D02*
D03*
D22*
X137584D02*
D03*
X281784D02*
D03*
Y45777D02*
D03*
X137584D02*
D03*
D23*
X205740Y434340D02*
D03*
X180340D02*
D03*
X154940D02*
D03*
X205740Y483870D02*
D03*
X180340D02*
D03*
X154940D02*
D03*
D24*
X129540Y434340D02*
D03*
X129540Y483870D02*
D03*
D25*
X269501Y381174D02*
D03*
X111760Y299720D02*
D03*
X233179Y463386D02*
D03*
X239123Y485505D02*
D03*
X191606Y463386D02*
D03*
X170401Y224989D02*
D03*
X245454Y589116D02*
D03*
X99404Y353404D02*
D03*
X269501Y570001D02*
D03*
X262250Y114867D02*
D03*
X217006Y399886D02*
D03*
X191606Y282538D02*
D03*
X205830Y290412D02*
D03*
X172048Y579210D02*
D03*
M02*
