G04*
G04 #@! TF.GenerationSoftware,Altium Limited,Altium Designer,21.1.0 (24)*
G04*
G04 Layer_Physical_Order=2*
G04 Layer_Color=16711680*
%FSLAX44Y44*%
%MOMM*%
G71*
G04*
G04 #@! TF.SameCoordinates,0D715D1A-8308-42F1-A0E9-906EAE5A06CC*
G04*
G04*
G04 #@! TF.FilePolarity,Positive*
G04*
G01*
G75*
%ADD13C,0.2540*%
%ADD33C,0.9900*%
%ADD34C,1.7850*%
%ADD35C,1.5000*%
%ADD36R,1.5000X1.5000*%
%ADD37C,1.2700*%
G36*
X353043Y636312D02*
X351989Y634938D01*
X350986Y632518D01*
X350644Y629920D01*
X350986Y627323D01*
X351989Y624902D01*
X353584Y622824D01*
X355662Y621229D01*
X358083Y620226D01*
X360680Y619884D01*
X363278Y620226D01*
X365698Y621229D01*
X367072Y622283D01*
X368342Y621657D01*
Y18423D01*
X367072Y17797D01*
X365698Y18851D01*
X363278Y19854D01*
X360680Y20196D01*
X358083Y19854D01*
X355662Y18851D01*
X353584Y17256D01*
X351989Y15178D01*
X350986Y12758D01*
X350644Y10160D01*
X350986Y7563D01*
X351989Y5142D01*
X353043Y3768D01*
X352417Y2498D01*
X66683D01*
X66057Y3768D01*
X67111Y5142D01*
X68114Y7563D01*
X68456Y10160D01*
X68114Y12758D01*
X67111Y15178D01*
X65516Y17256D01*
X63438Y18851D01*
X61017Y19854D01*
X58420Y20196D01*
X55823Y19854D01*
X53402Y18851D01*
X52028Y17797D01*
X50758Y18423D01*
Y621657D01*
X52028Y622283D01*
X53402Y621229D01*
X55823Y620226D01*
X58420Y619884D01*
X61017Y620226D01*
X63438Y621229D01*
X65516Y622824D01*
X67111Y624902D01*
X68114Y627323D01*
X68456Y629920D01*
X68114Y632518D01*
X67111Y634938D01*
X66057Y636312D01*
X66683Y637582D01*
X352417D01*
X353043Y636312D01*
D02*
G37*
%LPC*%
G36*
X266161Y613793D02*
X153206D01*
X151755Y613504D01*
X150524Y612682D01*
X142497Y604655D01*
X140553Y605460D01*
X137584Y605851D01*
X134614Y605460D01*
X131847Y604314D01*
X129471Y602490D01*
X127647Y600114D01*
X126501Y597347D01*
X126110Y594378D01*
X126501Y591408D01*
X127647Y588641D01*
X129471Y586265D01*
X131847Y584442D01*
X134614Y583295D01*
X137584Y582905D01*
X140553Y583295D01*
X143320Y584442D01*
X145696Y586265D01*
X147520Y588641D01*
X148666Y591408D01*
X149057Y594378D01*
X148666Y597347D01*
X147861Y599291D01*
X154777Y606207D01*
X264590D01*
X271507Y599291D01*
X270702Y597347D01*
X270311Y594378D01*
X270702Y591408D01*
X271848Y588641D01*
X273671Y586265D01*
X276047Y584442D01*
X278814Y583295D01*
X281784Y582905D01*
X284753Y583295D01*
X287521Y584442D01*
X289897Y586265D01*
X291720Y588641D01*
X292866Y591408D01*
X293257Y594378D01*
X292866Y597347D01*
X291720Y600114D01*
X289897Y602490D01*
X287521Y604314D01*
X284753Y605460D01*
X281784Y605851D01*
X278814Y605460D01*
X276871Y604655D01*
X268843Y612682D01*
X267613Y613504D01*
X266161Y613793D01*
D02*
G37*
G36*
X70284Y606834D02*
X67060Y606410D01*
X64055Y605165D01*
X61476Y603186D01*
X59496Y600606D01*
X58252Y597602D01*
X57827Y594378D01*
X58252Y591154D01*
X59496Y588149D01*
X61476Y585569D01*
X64055Y583590D01*
X67060Y582346D01*
X70284Y581921D01*
X73508Y582346D01*
X76512Y583590D01*
X79092Y585569D01*
X81071Y588149D01*
X82316Y591154D01*
X82740Y594378D01*
X82316Y597602D01*
X81071Y600606D01*
X79092Y603186D01*
X76512Y605165D01*
X73508Y606410D01*
X70284Y606834D01*
D02*
G37*
G36*
X245454Y597992D02*
X243157Y597690D01*
X241016Y596803D01*
X239178Y595392D01*
X237768Y593554D01*
X236881Y591413D01*
X236578Y589116D01*
X236881Y586819D01*
X237148Y586174D01*
X203058Y552084D01*
X202236Y550854D01*
X201947Y549402D01*
Y529260D01*
Y494823D01*
X200678Y494297D01*
X175841Y519133D01*
Y571256D01*
X176486Y571524D01*
X178325Y572934D01*
X179735Y574772D01*
X180622Y576913D01*
X180924Y579210D01*
X180622Y581507D01*
X179735Y583648D01*
X178325Y585486D01*
X176486Y586897D01*
X174345Y587784D01*
X172048Y588086D01*
X169751Y587784D01*
X167610Y586897D01*
X165772Y585486D01*
X164361Y583648D01*
X163475Y581507D01*
X163172Y579210D01*
X163475Y576913D01*
X164361Y574772D01*
X165772Y572934D01*
X167610Y571524D01*
X168255Y571256D01*
Y517562D01*
X168544Y516111D01*
X169366Y514880D01*
X184144Y500103D01*
X183658Y498929D01*
X101182D01*
X99731Y498640D01*
X98500Y497818D01*
X81482Y480800D01*
X80660Y479570D01*
X80371Y478118D01*
Y302350D01*
X80660Y300899D01*
X81482Y299668D01*
X157559Y223591D01*
X158790Y222769D01*
X160241Y222480D01*
X161915D01*
X162715Y220551D01*
X164125Y218713D01*
X165963Y217302D01*
X168104Y216416D01*
X170401Y216113D01*
X172699Y216416D01*
X174839Y217302D01*
X176678Y218713D01*
X178088Y220551D01*
X178975Y222692D01*
X179277Y224989D01*
X178975Y227286D01*
X178088Y229427D01*
X176678Y231265D01*
X174839Y232676D01*
X172699Y233563D01*
X170401Y233865D01*
X168104Y233563D01*
X165963Y232676D01*
X164125Y231265D01*
X163205Y230066D01*
X161812D01*
X87957Y303921D01*
Y316500D01*
X89130Y316986D01*
X103454Y302662D01*
X103187Y302017D01*
X102884Y299720D01*
X103187Y297423D01*
X104073Y295282D01*
X105484Y293444D01*
X107322Y292033D01*
X109463Y291147D01*
X111760Y290844D01*
X114057Y291147D01*
X116198Y292033D01*
X118036Y293444D01*
X119447Y295282D01*
X120333Y297423D01*
X120636Y299720D01*
X120333Y302017D01*
X119447Y304158D01*
X118036Y305996D01*
X116198Y307407D01*
X114057Y308293D01*
X111760Y308596D01*
X109463Y308293D01*
X108818Y308026D01*
X93037Y323807D01*
Y345597D01*
X94307Y346223D01*
X94966Y345718D01*
X97107Y344831D01*
X99404Y344528D01*
X101701Y344831D01*
X103842Y345718D01*
X105681Y347128D01*
X107091Y348966D01*
X107358Y349611D01*
X122264D01*
X123716Y349900D01*
X124946Y350722D01*
X183022Y408798D01*
X183844Y410028D01*
X184133Y411480D01*
Y425141D01*
X185358Y425649D01*
X186543Y426558D01*
X187813Y425932D01*
Y290492D01*
X187168Y290225D01*
X185330Y288815D01*
X183920Y286976D01*
X183033Y284835D01*
X182730Y282538D01*
X183033Y280241D01*
X183920Y278100D01*
X185330Y276262D01*
X187168Y274851D01*
X189309Y273965D01*
X191606Y273662D01*
X193904Y273965D01*
X196044Y274851D01*
X197882Y276262D01*
X199293Y278100D01*
X200180Y280241D01*
X200278Y280989D01*
X201639Y281596D01*
X201990Y281355D01*
X202037Y115595D01*
X142497Y56054D01*
X140553Y56859D01*
X137584Y57250D01*
X134614Y56859D01*
X131847Y55713D01*
X129471Y53890D01*
X127647Y51514D01*
X126501Y48747D01*
X126110Y45777D01*
X126501Y42808D01*
X127647Y40041D01*
X129471Y37664D01*
X131847Y35841D01*
X134614Y34695D01*
X137584Y34304D01*
X140553Y34695D01*
X143320Y35841D01*
X145696Y37664D01*
X147520Y40041D01*
X148666Y42808D01*
X149057Y45777D01*
X148666Y48747D01*
X147861Y50690D01*
X208512Y111342D01*
X208513Y111342D01*
X208513Y111343D01*
X208922Y111955D01*
X209334Y112572D01*
X209335Y112573D01*
X209335Y112573D01*
X209478Y113294D01*
X209623Y114024D01*
Y282458D01*
X210268Y282726D01*
X211943Y284011D01*
X213213Y283706D01*
Y160110D01*
X213502Y158659D01*
X214324Y157428D01*
X253944Y117809D01*
X253676Y117164D01*
X253374Y114867D01*
X253676Y112570D01*
X254563Y110429D01*
X255973Y108590D01*
X257812Y107180D01*
X259953Y106293D01*
X262250Y105991D01*
X264547Y106293D01*
X266688Y107180D01*
X268526Y108590D01*
X269937Y110429D01*
X270823Y112570D01*
X271126Y114867D01*
X270823Y117164D01*
X269937Y119305D01*
X268526Y121143D01*
X266688Y122554D01*
X264547Y123440D01*
X262250Y123743D01*
X259953Y123440D01*
X259307Y123173D01*
X220799Y161681D01*
Y391932D01*
X221444Y392200D01*
X223283Y393610D01*
X224693Y395448D01*
X225580Y397589D01*
X225882Y399886D01*
X225580Y402183D01*
X224693Y404324D01*
X223283Y406162D01*
X221444Y407573D01*
X219303Y408460D01*
X217006Y408762D01*
X214709Y408460D01*
X212568Y407573D01*
X210811Y406224D01*
X210261Y406321D01*
X209541Y406566D01*
X209535Y425142D01*
X210758Y425649D01*
X212836Y427243D01*
X214431Y429322D01*
X215434Y431742D01*
X215776Y434340D01*
X215434Y436937D01*
X214431Y439358D01*
X212836Y441436D01*
X210758Y443031D01*
X208337Y444034D01*
X205740Y444376D01*
X203142Y444034D01*
X200722Y443031D01*
X198643Y441436D01*
X197049Y439358D01*
X196669Y438442D01*
X195399Y438694D01*
Y442140D01*
X195110Y443592D01*
X194288Y444822D01*
X184133Y454977D01*
Y456704D01*
X184921Y456971D01*
X185403Y457054D01*
X187168Y455700D01*
X189309Y454813D01*
X191606Y454510D01*
X193904Y454813D01*
X196044Y455700D01*
X197882Y457110D01*
X199293Y458948D01*
X199560Y459593D01*
X225224D01*
X225492Y458948D01*
X226902Y457110D01*
X228741Y455700D01*
X230881Y454813D01*
X233179Y454510D01*
X235476Y454813D01*
X237616Y455700D01*
X239455Y457110D01*
X240865Y458948D01*
X241752Y461089D01*
X242054Y463386D01*
X241752Y465684D01*
X240865Y467824D01*
X239455Y469663D01*
X239189Y469867D01*
X239620Y471137D01*
X244629D01*
X247337Y468429D01*
Y399461D01*
X247626Y398010D01*
X248448Y396779D01*
X261170Y384057D01*
X260927Y383471D01*
X260625Y381174D01*
X260927Y378877D01*
X261814Y376736D01*
X263224Y374898D01*
X265063Y373487D01*
X267203Y372601D01*
X269501Y372298D01*
X271798Y372601D01*
X273938Y373487D01*
X275777Y374898D01*
X277187Y376736D01*
X278074Y378877D01*
X278376Y381174D01*
X278074Y383471D01*
X277187Y385612D01*
X275777Y387450D01*
X273938Y388861D01*
X271798Y389748D01*
X269501Y390050D01*
X267203Y389748D01*
X266499Y389456D01*
X254923Y401032D01*
Y470000D01*
X254878Y470226D01*
X255683Y471207D01*
X256418D01*
X257869Y471496D01*
X259100Y472318D01*
X272182Y485401D01*
X273005Y486631D01*
X273293Y488083D01*
Y562047D01*
X273938Y562314D01*
X275777Y563725D01*
X277187Y565563D01*
X278074Y567704D01*
X278376Y570001D01*
X278074Y572298D01*
X277187Y574439D01*
X275777Y576277D01*
X273938Y577687D01*
X271798Y578574D01*
X269501Y578877D01*
X267203Y578574D01*
X265063Y577687D01*
X263224Y576277D01*
X261814Y574439D01*
X260927Y572298D01*
X260625Y570001D01*
X260927Y567704D01*
X261814Y565563D01*
X263224Y563725D01*
X265063Y562314D01*
X265708Y562047D01*
Y489654D01*
X254847Y478793D01*
X246666D01*
X246093Y479674D01*
X246020Y480038D01*
X246810Y481067D01*
X247697Y483208D01*
X247999Y485505D01*
X247697Y487802D01*
X246810Y489943D01*
X245399Y491781D01*
X243561Y493192D01*
X243192Y493345D01*
Y495601D01*
X242903Y497053D01*
X242081Y498283D01*
X209533Y530831D01*
Y547831D01*
X242512Y580810D01*
X243157Y580543D01*
X245454Y580240D01*
X247752Y580543D01*
X249892Y581429D01*
X251730Y582840D01*
X253141Y584678D01*
X254028Y586819D01*
X254330Y589116D01*
X254028Y591413D01*
X253141Y593554D01*
X251730Y595392D01*
X249892Y596803D01*
X247752Y597690D01*
X245454Y597992D01*
D02*
G37*
G36*
X283054Y57174D02*
Y47047D01*
X293181D01*
X292954Y48770D01*
X291799Y51559D01*
X289961Y53954D01*
X287566Y55792D01*
X284777Y56947D01*
X283054Y57174D01*
D02*
G37*
G36*
X280514D02*
X278791Y56947D01*
X276002Y55792D01*
X273607Y53954D01*
X271769Y51559D01*
X270614Y48770D01*
X270387Y47047D01*
X280514D01*
Y57174D01*
D02*
G37*
G36*
X293181Y44507D02*
X283054D01*
Y34381D01*
X284777Y34607D01*
X287566Y35763D01*
X289961Y37600D01*
X291799Y39995D01*
X292954Y42784D01*
X293181Y44507D01*
D02*
G37*
G36*
X280514D02*
X270387D01*
X270614Y42784D01*
X271769Y39995D01*
X273607Y37600D01*
X276002Y35763D01*
X278791Y34607D01*
X280514Y34381D01*
Y44507D01*
D02*
G37*
%LPD*%
G36*
X234957Y494679D02*
X234685Y493192D01*
X232847Y491781D01*
X231436Y489943D01*
X230550Y487802D01*
X230247Y485505D01*
X230550Y483208D01*
X231436Y481067D01*
X232261Y479992D01*
X231635Y478722D01*
X222200D01*
X220748Y478434D01*
X219518Y477612D01*
X218229Y476323D01*
X214092D01*
X213465Y477593D01*
X214432Y478852D01*
X215434Y481273D01*
X215776Y483870D01*
X215434Y486468D01*
X214432Y488888D01*
X212837Y490967D01*
X210758Y492562D01*
X209533Y493069D01*
Y518443D01*
X210707Y518929D01*
X234957Y494679D01*
D02*
G37*
G36*
X172558Y490073D02*
X171649Y488888D01*
X170646Y486468D01*
X170305Y483870D01*
X170646Y481273D01*
X171649Y478852D01*
X173244Y476774D01*
X175322Y475179D01*
X176548Y474672D01*
Y453406D01*
X176836Y451955D01*
X177658Y450724D01*
X183088Y445295D01*
X182494Y444092D01*
X180340Y444376D01*
X177742Y444034D01*
X175322Y443031D01*
X173243Y441436D01*
X171649Y439358D01*
X170646Y436937D01*
X170304Y434340D01*
X170646Y431742D01*
X171649Y429322D01*
X173243Y427243D01*
X175322Y425649D01*
X176547Y425141D01*
Y413051D01*
X120693Y357197D01*
X107358D01*
X107091Y357842D01*
X105681Y359680D01*
X103842Y361091D01*
X101701Y361978D01*
X99404Y362280D01*
X97107Y361978D01*
X94966Y361091D01*
X94307Y360585D01*
X93037Y361212D01*
Y367073D01*
X151117Y425153D01*
X152342Y424646D01*
X154940Y424304D01*
X157537Y424646D01*
X159958Y425649D01*
X162036Y427243D01*
X163631Y429322D01*
X164634Y431742D01*
X164976Y434340D01*
X164634Y436937D01*
X163631Y439358D01*
X162036Y441436D01*
X159958Y443031D01*
X157537Y444034D01*
X154940Y444376D01*
X152342Y444034D01*
X149922Y443031D01*
X147843Y441436D01*
X146249Y439358D01*
X145246Y436937D01*
X144904Y434340D01*
X145246Y431742D01*
X145753Y430517D01*
X140753Y425517D01*
X139580Y426003D01*
Y433070D01*
X130810D01*
Y424300D01*
X137877D01*
X138363Y423126D01*
X89130Y373894D01*
X87957Y374380D01*
Y476547D01*
X102753Y491343D01*
X119500D01*
Y485140D01*
X139580D01*
Y491343D01*
X146532D01*
X147158Y490073D01*
X146249Y488888D01*
X145246Y486468D01*
X144904Y483870D01*
X145246Y481273D01*
X146249Y478852D01*
X147844Y476774D01*
X149922Y475179D01*
X152343Y474176D01*
X154940Y473834D01*
X157538Y474176D01*
X159958Y475179D01*
X162037Y476774D01*
X163632Y478852D01*
X164634Y481273D01*
X164976Y483870D01*
X164634Y486468D01*
X163632Y488888D01*
X162722Y490073D01*
X163349Y491343D01*
X171932D01*
X172558Y490073D01*
D02*
G37*
G36*
X212568Y392200D02*
X213213Y391932D01*
Y297118D01*
X211943Y296814D01*
X210268Y298099D01*
X209571Y298388D01*
X209544Y393207D01*
X210231Y393441D01*
X210814Y393545D01*
X212568Y392200D01*
D02*
G37*
G36*
X197049Y429322D02*
X198643Y427243D01*
X200722Y425649D01*
X201950Y425140D01*
X201985Y298345D01*
X201392Y298099D01*
X199554Y296688D01*
X198144Y294850D01*
X197257Y292710D01*
X197157Y291949D01*
X195793Y291320D01*
X195399Y291575D01*
Y429985D01*
X196669Y430238D01*
X197049Y429322D01*
D02*
G37*
%LPC*%
G36*
X139580Y482600D02*
X130810D01*
Y473830D01*
X139580D01*
Y482600D01*
D02*
G37*
G36*
X128270D02*
X119500D01*
Y473830D01*
X128270D01*
Y482600D01*
D02*
G37*
G36*
X139580Y444380D02*
X130810D01*
Y435610D01*
X139580D01*
Y444380D01*
D02*
G37*
G36*
X128270D02*
X119500D01*
Y435610D01*
X128270D01*
Y444380D01*
D02*
G37*
G36*
Y433070D02*
X119500D01*
Y424300D01*
X128270D01*
Y433070D01*
D02*
G37*
%LPD*%
D13*
X251130Y399461D02*
X269501Y381090D01*
X251130Y399461D02*
Y470000D01*
X246200Y474930D02*
X251130Y470000D01*
X122264Y353404D02*
X180340Y411480D01*
Y434340D01*
X99404Y353404D02*
X122264D01*
X219800Y472530D02*
X222200Y474930D01*
X246200D01*
X256418Y475000D02*
X269501Y488083D01*
X246270Y475000D02*
X256418D01*
X246200Y474930D02*
X246270Y475000D01*
X89244Y322236D02*
X111760Y299720D01*
X89244Y322236D02*
Y368644D01*
X191606Y463386D02*
X233179D01*
X205781Y290412D02*
X205830Y114024D01*
X137584Y594378D02*
X153206Y610000D01*
X266161D01*
X281784Y594378D01*
X205740Y529260D02*
X239399Y495601D01*
Y485781D02*
Y495601D01*
X239123Y485505D02*
X239399Y485781D01*
X199480Y472530D02*
X219800D01*
X194400Y477610D02*
X199480Y472530D01*
X269501Y488083D02*
Y570001D01*
X205740Y483870D02*
Y529260D01*
Y549402D01*
X186526Y495136D02*
X194400Y487262D01*
Y477610D02*
Y487262D01*
X180340Y453406D02*
Y483870D01*
X101182Y495136D02*
X186526D01*
X172048Y517562D02*
X205740Y483870D01*
X172048Y517562D02*
Y579210D01*
X84164Y478118D02*
X101182Y495136D01*
X180340Y453406D02*
X191606Y442140D01*
X205740Y549402D02*
X245454Y589116D01*
X160241Y226273D02*
X169118D01*
X170401Y224989D01*
X84164Y302350D02*
X160241Y226273D01*
X205740Y434340D02*
X205781Y290412D01*
X84164Y302350D02*
Y478118D01*
X89244Y368644D02*
X154940Y434340D01*
X217006Y160110D02*
X262250Y114867D01*
X217006Y160110D02*
Y399886D01*
X191606Y282538D02*
Y442140D01*
X205830Y114024D02*
Y290412D01*
X137584Y45777D02*
X205830Y114024D01*
D33*
X58420Y10160D02*
D03*
X360680D02*
D03*
Y629920D02*
D03*
X58420D02*
D03*
X70284Y594378D02*
D03*
D34*
X137584D02*
D03*
X281784D02*
D03*
Y45777D02*
D03*
X137584D02*
D03*
D35*
X205740Y434340D02*
D03*
X180340D02*
D03*
X154940D02*
D03*
X205740Y483870D02*
D03*
X180340D02*
D03*
X154940D02*
D03*
D36*
X129540Y434340D02*
D03*
X129540Y483870D02*
D03*
D37*
X269501Y381174D02*
D03*
X111760Y299720D02*
D03*
X233179Y463386D02*
D03*
X239123Y485505D02*
D03*
X191606Y463386D02*
D03*
X170401Y224989D02*
D03*
X245454Y589116D02*
D03*
X99404Y353404D02*
D03*
X269501Y570001D02*
D03*
X262250Y114867D02*
D03*
X217006Y399886D02*
D03*
X191606Y282538D02*
D03*
X205830Y290412D02*
D03*
X172048Y579210D02*
D03*
M02*
