G04*
G04 #@! TF.GenerationSoftware,Altium Limited,Altium Designer,21.1.0 (24)*
G04*
G04 Layer_Color=32768*
%FSLAX44Y44*%
%MOMM*%
G71*
G04*
G04 #@! TF.SameCoordinates,0D715D1A-8308-42F1-A0E9-906EAE5A06CC*
G04*
G04*
G04 #@! TF.FilePolarity,Positive*
G04*
G01*
G75*
%ADD11C,0.1000*%
%ADD38C,0.0500*%
D11*
X246700Y543301D02*
Y602001D01*
X173300Y543301D02*
X246700D01*
X173300D02*
Y602001D01*
X246700D01*
D38*
X263500Y409500D02*
X286500D01*
X263500D02*
Y420500D01*
X286500D01*
Y409500D02*
Y420500D01*
X293500D02*
X316500D01*
Y409500D02*
Y420500D01*
X293500Y409500D02*
X316500D01*
X293500D02*
Y420500D01*
Y394500D02*
X316500D01*
X293500D02*
Y405500D01*
X316500D01*
Y394500D02*
Y405500D01*
X263500D02*
X286500D01*
Y394500D02*
Y405500D01*
X263500Y394500D02*
X286500D01*
X263500D02*
Y405500D01*
X264900Y475600D02*
X295100D01*
X264900D02*
Y494400D01*
X295100D01*
Y475600D02*
Y494400D01*
X272600Y428499D02*
X297400D01*
X272600D02*
Y441500D01*
X297400D01*
Y428499D02*
Y441500D01*
X264900Y450600D02*
X295100D01*
X264900D02*
Y469400D01*
X295100D01*
Y450600D02*
Y469400D01*
M02*
