%TF.GenerationSoftware,Altium Limited,Altium Designer,21.1.0 (24)*%
G04 Layer_Color=32768*
%FSLAX45Y45*%
%MOMM*%
%TF.SameCoordinates,49BA872B-5DCF-458F-AF9B-1BC46ABFEFE7*%
%TF.FilePolarity,Positive*%
%TF.FileFunction,Other,Mechanical_15*%
%TF.Part,Single*%
G01*
G75*
%TA.AperFunction,NonConductor*%
%ADD32C,0.10000*%
%ADD42C,0.05000*%
D32*
X2467004Y5433008D02*
Y6020007D01*
X1733005Y5433008D02*
X2467004D01*
X1733005D02*
Y6020007D01*
X2467004D01*
D42*
X2635005Y4095002D02*
X2865002D01*
X2635005D02*
Y4204999D01*
X2865002D01*
Y4095002D02*
Y4204999D01*
X2935004D02*
X3165001D01*
Y4095002D02*
Y4204999D01*
X2935004Y4095002D02*
X3165001D01*
X2935004D02*
Y4204999D01*
Y3944999D02*
X3165001D01*
X2935004D02*
Y4054997D01*
X3165001D01*
Y3944999D02*
Y4054997D01*
X2635005D02*
X2865002D01*
Y3944999D02*
Y4054997D01*
X2635005Y3944999D02*
X2865002D01*
X2635005D02*
Y4054997D01*
X2649000Y4755996D02*
X2951001D01*
X2649000D02*
Y4943997D01*
X2951001D01*
Y4755996D02*
Y4943997D01*
X2726003Y4284994D02*
X2974003D01*
X2726003D02*
Y4414996D01*
X2974003D01*
Y4284994D02*
Y4414996D01*
X2649000Y4505999D02*
X2951001D01*
X2649000D02*
Y4694000D01*
X2951001D01*
Y4505999D02*
Y4694000D01*
%TF.MD5,e20552c5371591dfeca1a66ac04ba716*%
M02*
