%TF.GenerationSoftware,Altium Limited,Altium Designer,21.1.0 (24)*%
G04 Layer_Color=8421504*
%FSLAX45Y45*%
%MOMM*%
%TF.SameCoordinates,C7EFD359-0A36-47DB-A843-284638A52AF0*%
%TF.FilePolarity,Positive*%
%TF.FileFunction,Paste,Top*%
%TF.Part,Single*%
G01*
G75*
%TA.AperFunction,SMDPad,CuDef*%
%ADD11R,0.70000X0.60000*%
%ADD12R,0.55000X1.14500*%
%ADD13R,1.14500X0.55000*%
%ADD14R,1.90000X0.70000*%
%ADD15R,0.70000X1.90000*%
%ADD16R,1.10000X1.57000*%
%ADD17R,0.78000X0.99000*%
D11*
X2805002Y4149998D02*
D03*
X2695005D02*
D03*
X2995004D02*
D03*
X3105001D02*
D03*
Y3999996D02*
D03*
X2995004D02*
D03*
X2695005D02*
D03*
X2805002D02*
D03*
D12*
X2300004Y5809705D02*
D03*
X2220004D02*
D03*
X2140004D02*
D03*
X2060005D02*
D03*
X1980005D02*
D03*
X1900005D02*
D03*
Y5590305D02*
D03*
X1980005D02*
D03*
X2060005D02*
D03*
X2140004D02*
D03*
X2220004D02*
D03*
X2300004D02*
D03*
D13*
X1890206Y5700007D02*
D03*
X2309803D02*
D03*
D14*
X1449998Y2750001D02*
D03*
Y2625002D02*
D03*
Y2500004D02*
D03*
Y2375005D02*
D03*
Y2250002D02*
D03*
Y2125003D02*
D03*
Y2000005D02*
D03*
Y1875001D02*
D03*
Y1750003D02*
D03*
Y1625004D02*
D03*
Y1500001D02*
D03*
Y1375002D02*
D03*
Y1250004D02*
D03*
X2919998D02*
D03*
Y1375002D02*
D03*
Y1500001D02*
D03*
Y1625004D02*
D03*
Y1750003D02*
D03*
Y1875001D02*
D03*
Y2000005D02*
D03*
Y2125003D02*
D03*
Y2250002D02*
D03*
Y2375005D02*
D03*
Y2500004D02*
D03*
Y2625002D02*
D03*
Y2750001D02*
D03*
D15*
X1747498Y869105D02*
D03*
X1872502D02*
D03*
X1997500D02*
D03*
X2122499D02*
D03*
X2247502D02*
D03*
X2372501D02*
D03*
X2497499D02*
D03*
X2622498D02*
D03*
Y3139103D02*
D03*
X2497499D02*
D03*
X2372501D02*
D03*
X2247502D02*
D03*
X2122499D02*
D03*
X1997500D02*
D03*
X1872502D02*
D03*
X1747498D02*
D03*
D16*
X2880999Y4849996D02*
D03*
X2718997D02*
D03*
X2880999Y4599999D02*
D03*
X2718997D02*
D03*
D17*
X2920003Y4349992D02*
D03*
X2780003D02*
D03*
%TF.MD5,50a87402f3860278eb5d61f1646ca087*%
M02*
