%TF.GenerationSoftware,Altium Limited,Altium Designer,21.1.0 (24)*%
G04 Layer_Color=16711935*
%FSLAX45Y45*%
%MOMM*%
%TF.SameCoordinates,49BA872B-5DCF-458F-AF9B-1BC46ABFEFE7*%
%TF.FilePolarity,Negative*%
%TF.FileFunction,Soldermask,Bot*%
%TF.Part,Single*%
G01*
G75*
%TA.AperFunction,WasherPad*%
%ADD25C,1.19320*%
%TA.AperFunction,ComponentPad*%
%ADD26C,1.98820*%
%ADD27C,1.19320*%
%ADD28C,1.70320*%
%ADD29R,1.70320X1.70320*%
%TA.AperFunction,ViaPad*%
%ADD30C,1.47320*%
D25*
X584200Y101600D02*
D03*
X3606800D02*
D03*
Y6299200D02*
D03*
X584200D02*
D03*
D26*
X1375835Y5943776D02*
D03*
X2817839D02*
D03*
Y457773D02*
D03*
X1375835D02*
D03*
D27*
X702837Y5943776D02*
D03*
D28*
X2057398Y4343398D02*
D03*
X1803398D02*
D03*
X1549398D02*
D03*
X2057404Y4838704D02*
D03*
X1803404D02*
D03*
X1549404D02*
D03*
D29*
X1295398Y4343398D02*
D03*
X1295404Y4838704D02*
D03*
D30*
X2695005Y3811741D02*
D03*
X1117600Y2997200D02*
D03*
X2331785Y4633863D02*
D03*
X2391231Y4855051D02*
D03*
X1916063Y4633863D02*
D03*
X1704013Y2249890D02*
D03*
X2454543Y5891163D02*
D03*
X994043Y3534043D02*
D03*
X2695005Y5700007D02*
D03*
X2622498Y1148668D02*
D03*
X2170063Y3998863D02*
D03*
X1916063Y2825383D02*
D03*
X2058303Y2904123D02*
D03*
X1720483Y5792103D02*
D03*
%TF.MD5,9e5b77b286cb90d4c9bb39ebc5bdf740*%
M02*
