%TF.GenerationSoftware,Altium Limited,Altium Designer,21.1.0 (24)*%
G04 Layer_Color=8388736*
%FSLAX45Y45*%
%MOMM*%
%TF.SameCoordinates,49BA872B-5DCF-458F-AF9B-1BC46ABFEFE7*%
%TF.FilePolarity,Negative*%
%TF.FileFunction,Soldermask,Top*%
%TF.Part,Single*%
G01*
G75*
%TA.AperFunction,WasherPad*%
%ADD25C,1.19320*%
%TA.AperFunction,ComponentPad*%
%ADD26C,1.98820*%
%ADD27C,1.19320*%
%ADD28C,1.70320*%
%ADD29R,1.70320X1.70320*%
%TA.AperFunction,ViaPad*%
%ADD30C,1.47320*%
%TA.AperFunction,SMDPad,CuDef*%
%ADD34R,0.90320X0.80320*%
%ADD35R,0.75320X1.34820*%
%ADD36R,1.34820X0.75320*%
%ADD37R,2.10320X0.90320*%
%ADD38R,0.90320X2.10320*%
%ADD39R,1.30320X1.77320*%
%ADD40R,0.98320X1.19320*%
D25*
X584200Y101600D02*
D03*
X3606800D02*
D03*
Y6299200D02*
D03*
X584200D02*
D03*
D26*
X1375835Y5943776D02*
D03*
X2817839D02*
D03*
Y457773D02*
D03*
X1375835D02*
D03*
D27*
X702837Y5943776D02*
D03*
D28*
X2057398Y4343398D02*
D03*
X1803398D02*
D03*
X1549398D02*
D03*
X2057404Y4838704D02*
D03*
X1803404D02*
D03*
X1549404D02*
D03*
D29*
X1295398Y4343398D02*
D03*
X1295404Y4838704D02*
D03*
D30*
X2695005Y3811741D02*
D03*
X1117600Y2997200D02*
D03*
X2331785Y4633863D02*
D03*
X2391231Y4855051D02*
D03*
X1916063Y4633863D02*
D03*
X1704013Y2249890D02*
D03*
X2454543Y5891163D02*
D03*
X994043Y3534043D02*
D03*
X2695005Y5700007D02*
D03*
X2622498Y1148668D02*
D03*
X2170063Y3998863D02*
D03*
X1916063Y2825383D02*
D03*
X2058303Y2904123D02*
D03*
X1720483Y5792103D02*
D03*
D34*
X2805002Y4149998D02*
D03*
X2695005D02*
D03*
X2995004D02*
D03*
X3105001D02*
D03*
Y3999996D02*
D03*
X2995004D02*
D03*
X2695005D02*
D03*
X2805002D02*
D03*
D35*
X2300004Y5809705D02*
D03*
X2220004D02*
D03*
X2140004D02*
D03*
X2060005D02*
D03*
X1980005D02*
D03*
X1900005D02*
D03*
Y5590305D02*
D03*
X1980005D02*
D03*
X2060005D02*
D03*
X2140004D02*
D03*
X2220004D02*
D03*
X2300004D02*
D03*
D36*
X1890206Y5700007D02*
D03*
X2309803D02*
D03*
D37*
X1449998Y2750001D02*
D03*
Y2625002D02*
D03*
Y2500004D02*
D03*
Y2375005D02*
D03*
Y2250002D02*
D03*
Y2125003D02*
D03*
Y2000005D02*
D03*
Y1875001D02*
D03*
Y1750003D02*
D03*
Y1625004D02*
D03*
Y1500001D02*
D03*
Y1375002D02*
D03*
Y1250004D02*
D03*
X2919998D02*
D03*
Y1375002D02*
D03*
Y1500001D02*
D03*
Y1625004D02*
D03*
Y1750003D02*
D03*
Y1875001D02*
D03*
Y2000005D02*
D03*
Y2125003D02*
D03*
Y2250002D02*
D03*
Y2375005D02*
D03*
Y2500004D02*
D03*
Y2625002D02*
D03*
Y2750001D02*
D03*
D38*
X1747498Y869105D02*
D03*
X1872502D02*
D03*
X1997500D02*
D03*
X2122499D02*
D03*
X2247502D02*
D03*
X2372501D02*
D03*
X2497499D02*
D03*
X2622498D02*
D03*
Y3139103D02*
D03*
X2497499D02*
D03*
X2372501D02*
D03*
X2247502D02*
D03*
X2122499D02*
D03*
X1997500D02*
D03*
X1872502D02*
D03*
X1747498D02*
D03*
D39*
X2880999Y4849996D02*
D03*
X2718997D02*
D03*
X2880999Y4599999D02*
D03*
X2718997D02*
D03*
D40*
X2920003Y4349992D02*
D03*
X2780003D02*
D03*
%TF.MD5,06b243ee5c114081b18d14b5a63e4b1a*%
M02*
