%TF.GenerationSoftware,Altium Limited,Altium Designer,21.1.0 (24)*%
G04 Layer_Color=16711935*
%FSLAX45Y45*%
%MOMM*%
%TF.SameCoordinates,49BA872B-5DCF-458F-AF9B-1BC46ABFEFE7*%
%TF.FilePolarity,Positive*%
%TF.FileFunction,Other,Mechanical_13*%
%TF.Part,Single*%
G01*
G75*
%TA.AperFunction,NonConductor*%
%ADD31C,0.20000*%
%ADD32C,0.10000*%
D31*
X584200Y6197273D02*
X584201Y204275D01*
X3595338D01*
X584200Y6197273D02*
X3595338D01*
X2350001Y5550005D02*
Y5850005D01*
X1850002Y5550005D02*
X2350001D01*
X1850002D02*
Y5850005D01*
X2350001D01*
X1435002Y854104D02*
Y3154104D01*
Y854104D02*
X2934999D01*
Y3154104D01*
X1435002D02*
X2934999D01*
D32*
X2700003Y4124999D02*
X2800003D01*
X2700003D02*
Y4175002D01*
X2800003D01*
Y4124999D02*
Y4175002D01*
X3000003D02*
X3100002D01*
Y4124999D02*
Y4175002D01*
X3000003Y4124999D02*
X3100002D01*
X3000003D02*
Y4175002D01*
Y3974997D02*
X3100002D01*
X3000003D02*
Y4024999D01*
X3100002D01*
Y3974997D02*
Y4024999D01*
X2700003D02*
X2800003D01*
Y3974997D02*
Y4024999D01*
X2700003Y3974997D02*
X2800003D01*
X2700003D02*
Y4024999D01*
X2699998Y4787497D02*
X2899998D01*
X2699998D02*
Y4912496D01*
X2899998D01*
Y4787497D02*
Y4912496D01*
X2770001Y4309495D02*
X2930000D01*
X2770001D02*
Y4390495D01*
X2930000D01*
Y4309495D02*
Y4390495D01*
X2699998Y4537500D02*
X2899998D01*
X2699998D02*
Y4662499D01*
X2899998D01*
Y4537500D02*
Y4662499D01*
%TF.MD5,04629c65101cba306dadceecdffa0a63*%
M02*
